{
  "accessors": [
    {
      "bufferView": 2,
      "componentType": 5126,
      "count": 1357,
      "max": [23.5844783782959, 34.14968490600586, 40.243038177490234],
      "min": [-23.5844783782959, 0.0, -40.242897033691406],
      "type": "VEC3"
    },
    {
      "bufferView": 2,
      "byteOffset": 16284,
      "componentType": 5126,
      "count": 1357,
      "max": [0.9968552589416504, 1.0, 0.9997450113296509],
      "min": [-0.9968552589416504, -0.999882698059082, -0.9997450113296509],
      "type": "VEC3"
    },
    {
      "bufferView": 3,
      "componentType": 5126,
      "count": 1357,
      "max": [0.9999997615814209, 0.9868053197860718, 0.9999991655349731, 1.0],
      "min": [-1.0, -0.9867846369743347, -1.0, 1.0],
      "type": "VEC4"
    },
    {
      "bufferView": 1,
      "componentType": 5126,
      "count": 1357,
      "max": [0.9968129396438599, 0.9901248216629028],
      "min": [0.0047384207136929035, 0.0038367658853530884],
      "type": "VEC2"
    },
    {
      "bufferView": 1,
      "byteOffset": 10856,
      "componentType": 5126,
      "count": 1357,
      "max": [0.9968129396438599, 0.9901248216629028],
      "min": [0.0047384207136929035, 0.0038367658853530884],
      "type": "VEC2"
    },
    {
      "bufferView": 0,
      "componentType": 5125,
      "count": 6564,
      "type": "SCALAR"
    }
  ],
  "asset": {
    "extras": {
      "author": "HippoStance (https://sketchfab.com/hippostance)",
      "license": "CC-BY-4.0 (http://creativecommons.org/licenses/by/4.0/)",
      "source": "https://sketchfab.com/3d-models/plastic-storage-container-40073fa4ac1d474d90f0dbaf1fe9944a",
      "title": "Plastic Storage Container"
    },
    "generator": "Sketchfab-12.68.0",
    "version": "2.0"
  },
  "bufferViews": [
    {
      "buffer": 0,
      "byteLength": 26256,
      "name": "floatBufferViews",
      "target": 34963
    },
    {
      "buffer": 0,
      "byteLength": 21712,
      "byteOffset": 26256,
      "byteStride": 8,
      "name": "floatBufferViews",
      "target": 34962
    },
    {
      "buffer": 0,
      "byteLength": 32568,
      "byteOffset": 47968,
      "byteStride": 12,
      "name": "floatBufferViews",
      "target": 34962
    },
    {
      "buffer": 0,
      "byteLength": 21712,
      "byteOffset": 80536,
      "byteStride": 16,
      "name": "floatBufferViews",
      "target": 34962
    }
  ],
  "buffers": [
    {
      "byteLength": 102248,
      "uri": "scene.bin"
    }
  ],
  "images": [
    {
      "uri": "textures/StorageContainer_baseColor.png"
    },
    {
      "uri": "textures/StorageContainer_metallicRoughness.png"
    },
    {
      "uri": "textures/StorageContainer_normal.png"
    }
  ],
  "materials": [
    {
      "name": "StorageContainer",
      "normalTexture": {
        "index": 2
      },
      "occlusionTexture": {
        "index": 1
      },
      "pbrMetallicRoughness": {
        "baseColorTexture": {
          "index": 0
        },
        "metallicFactor": 0.0,
        "metallicRoughnessTexture": {
          "index": 1
        }
      }
    }
  ],
  "meshes": [
    {
      "name": "StorageContainer_StorageContainer_0",
      "primitives": [
        {
          "attributes": {
            "NORMAL": 1,
            "POSITION": 0,
            "TANGENT": 2,
            "TEXCOORD_0": 3,
            "TEXCOORD_1": 4
          },
          "indices": 5,
          "material": 0,
          "mode": 4
        }
      ]
    }
  ],
  "nodes": [
    {
      "children": [1],
      "matrix": [
        0.009999999776482582, 0.0, 0.0, 0.0, 0.0, 2.2204459996194763e-18,
        -0.009999999776482582, 0.0, 0.0, 0.009999999776482582,
        2.2204459996194763e-18, 0.0, 0.0, 0.0, 0.0, 1.0
      ],
      "name": "Sketchfab_model"
    },
    {
      "children": [2],
      "matrix": [
        1.0, 0.0, 0.0, 0.0, 0.0, 0.0, 1.0, 0.0, 0.0, -1.0, 0.0, 0.0, 0.0, 0.0,
        0.0, 1.0
      ],
      "name": "StorageContainer.fbx"
    },
    {
      "children": [3],
      "name": "RootNode"
    },
    {
      "children": [4],
      "name": "StorageContainer"
    },
    {
      "mesh": 0,
      "name": "StorageContainer_StorageContainer_0"
    }
  ],
  "samplers": [
    {
      "magFilter": 9729,
      "minFilter": 9987,
      "wrapS": 10497,
      "wrapT": 10497
    }
  ],
  "scene": 0,
  "scenes": [
    {
      "name": "Sketchfab_Scene",
      "nodes": [0]
    }
  ],
  "textures": [
    {
      "sampler": 0,
      "source": 0
    },
    {
      "sampler": 0,
      "source": 1
    },
    {
      "sampler": 0,
      "source": 2
    }
  ]
}
